{"title":"Sin.City.A.Dame.to.Kill.For.2014.1080p.BRRip.H264.AAC.MP4.Raven","uid":11122861,"size":1591981502,"categoryP":"video","categoryS":"hd___movies","magnet":"?xt=urn:btih:f74c82425b482dd04861127092b95558806531b6&amp;dn=Sin.City.A.Dame.to.Kill.For.2014.1080p.BRRip.H264.AAC.MP4.Raven&amp;tr=udp%3A%2F%2Ftracker.openbittorrent.com%3A80&amp;tr=udp%3A%2F%2Fopen.demonii.com%3A1337&amp;tr=udp%3A%2F%2Ftracker.coppersurfer.tk%3A6969&amp;tr=udp%3A%2F%2Fexodus.desync.com%3A6969","seeders":1,"leechers":0,"uploader":"Raven1969","files":-1,"time":1411943466,"description":"Sin.City.A.Dame.to.Kill.For.2014.1080p.BRRip.H264.AAC.MP4.Raven.\n\n\n\n\n\nScreen images:\n\n\n &lt;a href=&quot;\nhttp://i.imgur.com/jMewdEt.png&quot; rel=&quot;nofollow&quot; target=&quot;_NEW&quot;&gt;\nhttp://i.imgur.com/jMewdEt.png&lt;/a&gt;\n\n\n &lt;a href=&quot;\nhttp://i.imgur.com/rAvitzT.png&quot; rel=&quot;nofollow&quot; target=&quot;_NEW&quot;&gt;\nhttp://i.imgur.com/rAvitzT.png&lt;/a&gt;\n\n\n &lt;a href=&quot;\nhttp://i.imgur.com/kCZsumb.png&quot; rel=&quot;nofollow&quot; target=&quot;_NEW&quot;&gt;\nhttp://i.imgur.com/kCZsumb.png&lt;/a&gt;\n\n\n &lt;a href=&quot;\nhttp://i.imgur.com/CUqf9pm.png&quot; rel=&quot;nofollow&quot; target=&quot;_NEW&quot;&gt;\nhttp://i.imgur.com/CUqf9pm.png&lt;/a&gt;\n\n\n &lt;a href=&quot;\nhttp://i.imgur.com/FpJmuWV.png&quot; rel=&quot;nofollow&quot; target=&quot;_NEW&quot;&gt;\nhttp://i.imgur.com/FpJmuWV.png&lt;/a&gt;\n\n\n &lt;a href=&quot;\nhttp://i.imgur.com/Iv4ss12.png&quot; rel=&quot;nofollow&quot; target=&quot;_NEW&quot;&gt;\nhttp://i.imgur.com/Iv4ss12.png&lt;/a&gt;\n\n\n\n\n\n\n\nIMDB:\n\n\n\n &lt;a href=&quot;\nhttp://www.imdb.com/title/tt0458481&quot; rel=&quot;nofollow&quot; target=&quot;_NEW&quot;&gt;\nhttp://www.imdb.com/title/tt0458481&lt;/a&gt;\n\n\n\n\nIMDB Rating:  7.0\n\n\n\n\nStoryline:\n\nSome of Sin City's most hard-boiled citizens cross paths with a few of its more reviled inhabitants.\nCo-directors Robert Rodriguez and Frank Miller reunite to bring Miller's &quot;Sin City&quot; graphic novels back to the screen. Weaving together two of Miller's classic stories with new tales, the town's most hard boiled citizens cross paths with some of its more notorious inhabitants.\n\n\n\nGeneral\nFormat                                   : MPEG-4\nFormat profile                           : Base Media\nCodec ID                                 : isom\nFile size                                : 1.48 GiB\nDuration                                 : 1h 42mn\nOverall bit rate mode                    : Variable\nOverall bit rate                         : 2 062 Kbps\nEncoded date                             : UTC 2014-09-28 19:58:47\nTagged date                              : UTC 2014-09-28 19:58:47\nWriting application                      : My MP4Box GUI 0.6.0.6 \n\nVideo\nID                                       : 1\nFormat                                   : AVC\nFormat/Info                              : Advanced Video Codec\nFormat profile                           : &lt;a class=&quot;__cf_email__&quot; href=&quot;/cdn-cgi/l/email-protection&quot; data-cfemail=&quot;7c34151b143c3048524c&quot;&gt;[email&amp;#160;protected]&lt;/a&gt;&lt;script data-cfhash='f9e31' type=&quot;text/javascript&quot;&gt;\n/* &lt;![CDATA[ */!function(){try{var t=&quot;currentScript&quot;in document?document.currentScript:function(){for(var t=document.getElementsByTagName(&quot;script&quot;),e=t.length;e--;)if(t[e].getAttribute(&quot;data-cfhash&quot;))return t[e]}();if(t&amp;&amp;t.previousSibling){var e,r,n,i,c=t.previousSibling,a=c.getAttribute(&quot;data-cfemail&quot;);if(a){for(e=&quot;&quot;,r=parseInt(a.substr(0,2),16),n=2;a.length-n;n+=2)i=parseInt(a.substr(n,2),16)^r,e+=String.fromCharCode(i);e=document.createTextNode(e),c.parentNode.replaceChild(e,c)}t.parentNode.removeChild(t);}}catch(u){}}()/* ]]&gt; */&lt;/script&gt;\nFormat settings, CABAC                   : Yes\nFormat settings, ReFrames                : 6 frames\nCodec ID                                 : avc1\nCodec ID/Info                            : Advanced Video Coding\nDuration                                 : 1h 42mn\nBit rate                                 : 2 000 Kbps\nMaximum bit rate                         : 28.5 Mbps\nWidth                                    : 1 920 pixels\nHeight                                   : 1 036 pixels\nDisplay aspect ratio                     : 1.85:1\nFrame rate mode                          : Constant\nFrame rate                               : 24.000 fps\nColor space                              : YUV\nChroma subsampling                       : 4:2:0\nBit depth                                : 8 bits\nScan type                                : Progressive\nBits/(Pixel*Frame)                       : 0.042\nStream size                              : 1.41 GiB (95%)\nWriting library                          : x264 core 128\nLanguage                                 : English\nEncoded date                             : UTC 2014-09-28 19:45:58\nTagged date                              : UTC 2014-09-28 19:59:17\n\nAudio\nID                                       : 2\nFormat                                   : AAC\nFormat/Info                              : Advanced Audio Codec\nFormat profile                           : LC\nCodec ID                                 : 40\nDuration                                 : 1h 42mn\nBit rate mode                            : Variable\nBit rate                                 : 93.6 Kbps\nMaximum bit rate                         : 103 Kbps\nChannel(s)                               : 2 channels\nChannel positions                        : Front: L R\nSampling rate                            : 44.1 KHz\nCompression mode                         : Lossy\nStream size                              : 68.7 MiB (5%)\nTitle                                    : Audio AAC LC 96kb.aac\nEncoded date                             : UTC 2014-09-28 19:59:12\nTagged date                              : UTC 2014-09-28 19:59:17\n\n\nPLEASE  SEED FOR AS LONG AS POSSIBLE TO KEEP THE TORRENT ALIVE :-)","torrent":{"xt":"urn:btih:f74c82425b482dd04861127092b95558806531b6","amp;dn":"Sin.City.A.Dame.to.Kill.For.2014.1080p.BRRip.H264.AAC.MP4.Raven","amp;tr":["udp%3A%2F%2Ftracker.openbittorrent.com%3A80","udp%3A%2F%2Fopen.demonii.com%3A1337","udp%3A%2F%2Ftracker.coppersurfer.tk%3A6969","udp%3A%2F%2Fexodus.desync.com%3A6969"],"infoHash":"f74c82425b482dd04861127092b95558806531b6","infoHashBuffer":{"type":"Buffer","data":[247,76,130,66,91,72,45,208,72,97,18,112,146,185,85,88,128,101,49,182]},"announce":[],"urlList":[]}}